<svg xmlns="http://www.w3.org/2000/svg"
     width="512"
     height="512"
     enableBackground="new 0 0 512 512"
     viewBox="0 0 520 520">
    <g transform="matrix(.9 0 0 .9 26 26)">
        <path id="_6-Check"
              fill="#fff"
              d="M239.987 460.841a10 10 0 01-7.343-3.213L34.657 243.463A10 10 0 0142 226.675h95.3a10.006 10.006 0 017.548 3.439l66.168 76.124c7.151-15.286 20.994-40.738 45.286-71.752 35.912-45.85 102.71-113.281 216.994-174.153a10 10 0 0110.85 16.712c-.436.341-44.5 35.041-95.212 98.6-46.672 58.49-108.714 154.13-139.243 277.6a10 10 0 01-9.707 7.6z"
              data-name="6-Check"
              data-original="#000000"></path>
    </g>
</svg>